<?xml version="1.0" encoding="utf-8"?>
<!-- Generator: Adobe Illustrator 16.0.0, SVG Export Plug-In . SVG Version: 6.00 Build 0)  -->
<!DOCTYPE svg PUBLIC "-//W3C//DTD SVG 1.1//EN" "http://www.w3.org/Graphics/SVG/1.1/DTD/svg11.dtd">
<svg version="1.1" xmlns="http://www.w3.org/2000/svg" xmlns:xlink="http://www.w3.org/1999/xlink" x="0px" y="0px" width="320px"
	 height="293px" viewBox="0 0 320 293" enable-background="new 0 0 320 293" xml:space="preserve">
<g id="Version_1" display="none">
	<g id="Layer_1" display="inline">
		<g>
			<polyline fill="#FFFFFF" points="168.5,23.5 158.5,170.5 16,97 			"/>
			<g>
				<path fill="#235B7D" d="M163.5,23.422c-3.242,47.652-6.483,95.304-9.725,142.956c-0.092,1.348-0.184,2.696-0.275,4.045
					c2.524-1.041,5.049-2.081,7.573-3.121c-43.844-22.614-87.687-45.228-131.531-67.842c-3.656-1.886-7.313-3.772-10.969-5.658
					c-4.621-2.383-10.965,3.396-5.147,6.396c43.844,22.614,87.687,45.228,131.531,67.842c3.656,1.887,7.313,3.772,10.969,5.658
					c2.604,1.344,7.34,0.309,7.573-3.121c3.242-47.651,6.483-95.303,9.725-142.955c0.092-1.349,0.184-2.697,0.275-4.045
					C173.837,18.608,163.842,18.403,163.5,23.422L163.5,23.422z"/>
			</g>
		</g>
		<g>
			<polyline fill="#FFFFFF" points="42,278 158.5,170.5 245.361,280.11 			"/>
			<g>
				<path fill="#235B7D" d="M45.559,281.091c36.18-33.385,72.359-66.77,108.539-100.153c2.654-2.449,5.308-4.897,7.961-7.347
					c-2.574-0.537-5.149-1.073-7.723-1.61c28.763,36.296,57.526,72.592,86.289,108.889c0.19,0.24,0.382,0.481,0.572,0.722
					c2.967,3.744,12.191,1.914,8.328-2.961c-28.763-36.296-57.526-72.592-86.289-108.889c-0.191-0.24-0.381-0.481-0.572-0.722
					c-1.527-1.928-5.552-3.613-7.723-1.61c-36.18,33.385-72.359,66.77-108.539,100.153c-2.654,2.449-5.308,4.897-7.961,7.347
					C34.158,278.861,42.092,284.29,45.559,281.091L45.559,281.091z"/>
			</g>
		</g>
		<g>
			<line fill="#FFFFFF" x1="310" y1="151.5" x2="158.5" y2="170.5"/>
			<g>
				<path fill="#235B7D" d="M311.117,147.224c-48.146,6.038-96.294,12.077-144.44,18.115c-2.353,0.295-4.707,0.59-7.06,0.885
					c-2.494,0.313-4.864,1.836-5.534,4.401c-0.55,2.104,0.923,4.449,3.301,4.151c48.146-6.039,96.293-12.077,144.44-18.115
					c2.354-0.295,4.706-0.59,7.06-0.885c2.494-0.313,4.864-1.835,5.535-4.401C314.968,149.271,313.494,146.926,311.117,147.224
					L311.117,147.224z"/>
			</g>
		</g>
	</g>
	<g id="Layer_2" display="inline">
		<g>
			<g>
				<path fill="#235B7D" d="M134.876,165.473c1.2,7.725,2.399,15.45,3.599,23.175c0.174,1.12,1.415,2.44,2.625,2.389
					c7.72-0.328,15.439-0.656,23.159-0.985c4.333-0.184,6.737-2.35,8.951-6.035c2.355-3.919,4.709-7.838,7.064-11.757
					c2.041-3.396,3.542-6.805,1.473-10.573c-1.798-3.276-3.596-6.552-5.394-9.829c-3.653-6.657-7.307-13.314-10.96-19.972
					c-0.659-1.202-2.223-1.316-3.381-1.079c-15.787,3.226-31.573,6.452-47.36,9.678c-4.414,0.902-7.373,7.131-6.476,11.217
					c3.948,17.991,7.896,35.983,11.844,53.975c0.254,1.159,1.349,2.389,2.625,2.389c19.202,0,38.403,0,57.605,0
					c3.725,0,5.922-3.438,7.335-6.418c4.327-9.124,8.654-18.248,12.981-27.372c1.643-3.464,4.759-7.949,4.691-11.962
					c-0.046-2.759-2.717-5.665-4.141-7.845c-11.249-17.217-22.498-34.435-33.748-51.652c-0.715-1.094-2.183-1.435-3.381-1.079
					c-26.317,7.824-52.635,15.648-78.953,23.472c-4.342,1.291-7.433,6.849-6.476,11.217c6.53,29.811,13.06,59.621,19.589,89.432
					c0.263,1.2,1.342,2.338,2.625,2.389c32.858,1.307,65.717,2.613,98.576,3.92c3.633,0.145,6.051-3.527,7.335-6.418
					c9.435-21.237,18.87-42.474,28.305-63.71c3.032-6.824-5.421-14.538-9.058-19.641c-8.841-12.407-17.683-24.814-26.523-37.222
					c-9.798-13.749-19.595-27.499-29.393-41.248c-1.225-1.719-3.139-1.217-4.756-0.519c-36.74,15.866-73.48,31.731-110.22,47.597
					c-3.609,1.559-5.929,6.966-5.101,10.656c9.216,41.056,18.433,82.113,27.648,123.168c0.277,1.232,1.332,2.297,2.625,2.389
					c46.033,3.256,92.066,6.512,138.1,9.769c0.25,0.018,0.5,0.035,0.75,0.053c2.676,0.189,5.396-2.368,6.478-4.611
					c15.285-31.745,30.571-63.49,45.857-95.234c1.07-2.224,2.505-5.592,0.755-7.916c-29.87-39.659-59.74-79.319-89.611-118.978
					c-3.13-4.156-6.26-8.311-9.39-12.467c-1.24-1.647-3.134-1.301-4.756-0.519C123.479,38.965,78.561,60.614,33.644,82.263
					c-5.916,2.851-11.832,5.702-17.748,8.554c-3.775,1.819-5.662,6.75-5.101,10.656c7.084,49.318,14.169,98.637,21.253,147.955
					c1.582,11.015,3.165,22.03,4.747,33.045c0.168,1.173,1.417,2.376,2.625,2.389c49.02,0.509,98.04,1.018,147.06,1.526
					c18.768,0.194,37.534,0.39,56.302,0.584c2.729,0.028,5.332-2.248,6.478-4.611c20.48-42.243,40.961-84.486,61.44-126.729
					c0.255-0.525,0.51-1.05,0.765-1.576c1.121-2.314,2.935-6.966-0.147-8.745c-2.86-1.651-6.525,1.932-7.647,4.245
					c-20.48,42.244-40.961,84.487-61.44,126.73c-0.255,0.524-0.51,1.05-0.765,1.575c2.159-1.537,4.318-3.074,6.478-4.611
					c-49.02-0.509-98.04-1.018-147.06-1.526c-18.768-0.194-37.535-0.39-56.302-0.584c0.875,0.796,1.75,1.593,2.625,2.389
					c-7.084-49.318-14.169-98.637-21.253-147.955c-1.582-11.015-3.165-22.03-4.747-33.045c-1.7,3.552-3.401,7.104-5.101,10.656
					c44.917-21.648,89.835-43.297,134.752-64.946c5.916-2.851,11.832-5.702,17.748-8.554c-1.585-0.173-3.171-0.346-4.756-0.519
					c29.87,39.659,59.74,79.319,89.61,118.978c3.13,4.156,6.26,8.311,9.39,12.466c0.252-2.638,0.504-5.276,0.755-7.915
					c-15.285,31.745-30.571,63.49-45.857,95.235c2.159-1.537,4.318-3.074,6.478-4.611c-46.033-3.256-92.066-6.512-138.1-9.769
					c-0.25-0.018-0.5-0.035-0.75-0.053c0.875,0.796,1.75,1.593,2.625,2.389c-9.216-41.057-18.433-82.112-27.648-123.168
					c-1.7,3.552-3.401,7.104-5.101,10.656c36.74-15.866,73.48-31.731,110.22-47.597c-1.585-0.173-3.171-0.346-4.756-0.519
					c21.712,30.469,43.423,60.938,65.135,91.407c-0.034-2.036-0.068-4.072-0.103-6.108c-9.523,21.436-19.046,42.87-28.569,64.305
					c2.445-2.139,4.89-4.278,7.335-6.418c-32.858-1.307-65.717-2.613-98.576-3.92c0.875,0.796,1.75,1.593,2.625,2.389
					c-6.53-29.811-13.06-59.621-19.589-89.432c-2.159,3.739-4.317,7.478-6.476,11.217c26.317-7.824,52.635-15.648,78.953-23.472
					c-1.127-0.36-2.254-0.719-3.381-1.079c12.377,18.944,24.755,37.889,37.132,56.833c-0.034-2.036-0.068-4.072-0.103-6.108
					c-5.673,11.963-11.347,23.926-17.021,35.889c2.445-2.139,4.89-4.278,7.335-6.418c-19.202,0-38.403,0-57.605,0
					c0.875,0.796,1.75,1.593,2.625,2.389c-3.948-17.991-7.896-35.983-11.844-53.975c-2.159,3.739-4.317,7.478-6.476,11.217
					c15.787-3.226,31.573-6.452,47.36-9.678c-1.127-0.36-2.254-0.719-3.381-1.079c5.591,10.188,11.182,20.376,16.773,30.565
					c0.251-2.639,0.503-5.276,0.755-7.915c-3.005,5.001-6.01,10.003-9.015,15.004c2.159-1.537,4.318-3.074,6.477-4.611
					c-8.273,0.352-16.546,0.704-24.819,1.056c0.875,0.796,1.75,1.593,2.625,2.389c-1.2-7.725-2.399-15.45-3.599-23.175
					c-0.562-3.616-4.88-2.291-6.677-0.749C135.812,158.18,134.313,161.844,134.876,165.473L134.876,165.473z"/>
			</g>
		</g>
	</g>
</g>
<g id="Version_2" display="none">
	<g id="Layer_1_copy" display="inline">
		<g>
			<polyline fill="#FFFFFF" points="168.5,23.5 158.5,170.5 16,97 			"/>
			<polygon fill="#235B7D" points="173.488,23.839 161.1,170.677 160.763,174.671 157.306,172.815 16,97 159.694,168.185 
				155.9,170.323 163.512,23.161 			"/>
		</g>
		<g>
			<polyline fill="#FFFFFF" points="42,278 158.5,170.5 245.361,280.11 			"/>
			<polygon fill="#235B7D" points="38.609,274.325 156.911,168.777 158.825,167.069 160.337,169.045 245.361,280.11 
				156.663,171.956 160.089,172.223 45.391,281.675 			"/>
		</g>
		<g>
			<line fill="#FFFFFF" x1="310" y1="151.5" x2="158.5" y2="170.5"/>
			<polygon fill="#235B7D" points="310.622,156.461 158.5,170.5 309.378,146.539 			"/>
		</g>
	</g>
	<g id="Layer_2_copy" display="inline">
		<g>
			<polygon fill="#235B7D" points="140.872,160.877 144.624,184.028 143.64,183.222 168.453,182.003 167.542,182.544 
				176.458,167.48 176.434,168.708 159.46,138.253 161.034,138.982 113.736,148.963 115.111,146.849 127.26,200.757 
				125.226,199.121 182.831,198.797 180.657,200.172 197.475,164.188 197.649,166.753 160.196,110.129 163.577,111.369 
				84.757,135.286 87.163,131.209 107.255,220.53 103.514,217.395 202.108,220.836 197.844,223.489 226.102,159.046 226.58,163.793 
				161.007,72.698 167.485,74.505 57.454,122.539 60.829,115.914 88.966,238.973 83.239,234.047 222.138,243.182 215.322,247.136 
				260.617,151.631 261.398,159.54 211.543,94.086 161.854,28.505 172.112,30.995 95.834,67.687 19.428,104.112 23.814,95.877 
				36.212,186.464 42.327,231.77 48.389,277.082 42.067,271.546 92.902,272.611 143.735,273.784 194.568,275.024 245.4,276.346 
				241.974,278.468 274.273,214.896 290.507,183.15 306.847,151.456 308.286,152.154 293.523,184.612 278.654,217.02 
				248.749,281.753 247.774,283.862 245.322,283.875 194.474,284.141 143.626,284.326 92.779,284.443 41.933,284.454 
				36.462,284.455 35.611,278.918 28.673,233.73 21.788,188.536 8.186,98.123 7.331,92.442 12.572,89.888 88.666,52.813 
				164.888,16.005 171.053,13.028 175.146,18.495 224.457,84.359 273.602,150.349 276.407,154.116 274.382,158.259 227.963,253.223 
				225.856,257.534 221.147,257.178 82.346,246.67 77.625,246.313 76.619,241.744 49.459,118.466 48.415,113.728 52.834,111.841 
				163.243,64.681 167.242,62.973 169.722,66.488 234.42,158.207 236.017,160.471 234.898,162.954 206.018,227.12 204.763,229.908 
				201.753,229.773 103.196,225.375 100.093,225.236 99.455,222.239 80.37,132.697 79.692,129.518 82.775,128.62 161.86,105.593 
				164.033,104.96 165.241,106.833 202.054,163.876 202.861,165.127 202.229,166.441 185.006,202.234 184.34,203.618 
				182.831,203.609 125.226,203.285 123.54,203.275 123.192,201.649 111.652,147.608 111.275,145.84 113.027,145.494 
				160.449,136.118 161.516,135.907 162.023,136.847 178.595,167.522 178.936,168.152 178.571,168.75 169.458,183.694 
				169.141,184.214 168.547,184.235 143.721,185.128 142.862,185.159 142.738,184.321 139.291,161.123 			"/>
		</g>
	</g>
</g>
<g id="Version_2_copy">
	<g id="Layer_1_copy_2">
		<g>
			<polygon fill="#235B7D" points="173.488,23.839 161.1,170.677 160.763,174.671 157.306,172.815 16,97 159.694,168.185 
				155.9,170.323 163.512,23.161 			"/>
		</g>
		<g>
			<polygon fill="#235B7D" points="38.609,274.325 156.911,168.777 158.825,167.069 160.337,169.045 245.361,280.11 
				156.663,171.956 160.089,172.223 45.391,281.675 			"/>
		</g>
		<g>
			<polygon fill="#235B7D" points="157.878,165.539 310,151.5 159.122,175.461 			"/>
		</g>
	</g>
	<g id="Layer_2_copy_2">
		<g>
			<polygon fill="#235B7D" points="310.715,151.859 247.158,281.014 246.611,282.125 245.341,282.121 41.963,281.537 
				38.954,281.528 38.499,278.503 11.266,97.68 10.74,94.186 13.993,92.659 166.08,21.265 170.171,19.344 173.03,22.931 
				276.133,152.255 279.238,156.15 276.328,160.301 218.453,242.821 216.168,246.08 212.075,245.94 151.057,243.854 120.55,242.747 
				90.046,241.584 83.585,241.338 82.303,234.94 76.842,207.687 71.475,180.414 66.121,153.14 60.873,125.843 59.625,119.356 
				65.626,116.792 89.211,106.717 112.83,96.721 160.079,76.755 165.837,74.322 169.145,79.467 182.062,99.556 194.908,119.69 
				220.603,159.959 222.867,163.508 220.567,166.816 191.173,209.102 189.231,211.895 186.044,211.431 156.763,207.171 
				127.494,202.812 124.196,202.32 123.838,199.183 121.145,175.559 118.538,151.922 118.268,149.473 120.409,148.606 
				140.262,140.571 160.146,132.605 161.819,131.935 162.669,133.391 172.521,150.265 182.316,167.175 180.959,168.022 
				170.068,151.796 159.234,135.535 161.757,136.32 142.353,145.392 122.918,154.394 124.789,151.078 128.548,174.558 
				132.221,198.05 128.566,194.421 157.991,197.561 187.403,200.8 182.274,203.129 210.272,159.906 210.236,166.764 
				183.511,127.171 170.148,107.375 156.855,87.533 165.921,90.245 119.033,111.045 95.583,121.432 72.1,131.74 76.853,122.689 
				82.371,149.932 87.783,177.195 93.181,204.462 98.486,231.746 90.743,225.104 121.236,226.521 151.728,227.992 212.704,231.065 
				206.326,234.184 265.398,152.516 265.594,160.561 163.97,30.07 170.92,31.735 18.007,101.341 20.734,96.32 45.501,277.497 
				42.037,274.463 245.382,278.1 243.564,279.207 309.285,151.141 			"/>
		</g>
	</g>
</g>
</svg>
