<?xml version="1.0" encoding="utf-8"?>
<!-- Generator: Adobe Illustrator 16.0.0, SVG Export Plug-In . SVG Version: 6.00 Build 0)  -->
<!DOCTYPE svg PUBLIC "-//W3C//DTD SVG 1.1//EN" "http://www.w3.org/Graphics/SVG/1.1/DTD/svg11.dtd">
<svg version="1.1" xmlns="http://www.w3.org/2000/svg" xmlns:xlink="http://www.w3.org/1999/xlink" x="0px" y="0px" width="320px"
	 height="293px" viewBox="0 0 320 293" enable-background="new 0 0 320 293" xml:space="preserve">
<g id="Layer_5" display="none">
	<rect x="-3.59" y="-4.344" display="inline" stroke="#FFFFFF" stroke-miterlimit="10" width="330.492" height="300.329"/>
</g>
<g id="Version_2_copy">
	<g id="Layer_2_copy_3">
		<g>
			<polygon fill="#FFFFFF" points="306,145.5 241.361,274.11 38,272 12,91 164.5,20.5 266.863,150.408 208.39,232.503 
				86.395,227.344 64.863,118.266 159,77.5 211.42,157.361 182.724,200.115 124.03,192.616 117.663,145.5 157.656,169.328 			"/>
			<g>
				<path fill="#FFFFFF" d="M296.286,139.822c-21.209,42.2-42.418,84.399-63.627,126.598c-0.338,0.671-0.675,1.342-1.012,2.013
					c3.238-1.857,6.476-3.715,9.714-5.572c-49.02-0.509-98.04-1.018-147.06-1.526c-18.768-0.194-37.535-0.39-56.302-0.584
					c3.616,2.753,7.232,5.506,10.848,8.26c-7.084-49.318-14.169-98.637-21.253-147.956c-1.582-11.015-3.165-22.03-4.747-33.045
					c-1.723,4.235-3.447,8.47-5.17,12.705c45.076-20.838,90.151-41.676,135.227-62.515c5.758-2.662,11.516-5.323,17.273-7.985
					c-4.544-0.586-9.089-1.172-13.633-1.759c30.678,38.932,61.354,77.864,92.031,116.796c3.444,4.371,6.889,8.741,10.332,13.112
					c-0.586-4.544-1.173-9.089-1.759-13.633c-19.491,27.365-38.982,54.73-58.474,82.095c3.238-1.857,6.476-3.715,9.714-5.572
					c-40.665-1.72-81.33-3.439-121.995-5.159c3.616,2.753,7.232,5.506,10.848,8.26c-7.177-36.359-14.354-72.719-21.532-109.078
					c-1.723,4.235-3.447,8.47-5.17,12.705c31.379-13.588,62.758-27.177,94.137-40.766c-5.131-1.345-10.262-2.69-15.392-4.036
					c17.473,26.62,34.946,53.241,52.42,79.861c0-3.785,0-7.57,0-11.356c-9.565,14.251-19.131,28.502-28.696,42.754
					c3.238-1.857,6.476-3.715,9.714-5.572c-19.564-2.5-39.129-4.999-58.694-7.499c3.616,2.753,7.232,5.506,10.848,8.26
					c-2.122-15.706-4.245-31.411-6.367-47.117c-5.509,4.235-11.018,8.47-16.526,12.705c10.688,6.368,21.376,12.736,32.064,19.104
					c5.398,3.216,9.939,6.928,16.632,5.853c1.937-0.312,3.874-0.622,5.811-0.934c27.347-4.393,54.693-8.785,82.04-13.178
					c20.153-3.237,40.306-6.475,60.458-9.712c6.063-0.974,9.348-8.421,7.857-13.838c-1.757-6.39-7.789-8.829-13.838-7.857
					c-47.636,7.651-95.271,15.303-142.906,22.955c-1.813,0.291-3.625,0.582-5.438,0.874c2.89,0.378,5.779,0.756,8.669,1.134
					c-13.331-7.943-26.662-15.886-39.993-23.828c-3.447-2.054-7.907-2.021-11.356,0c-4.788,2.805-5.859,7.604-5.17,12.705
					c2.122,15.706,4.245,31.411,6.367,47.116c0.716,5.298,6.345,7.685,10.848,8.26c19.564,2.5,39.129,4.999,58.694,7.499
					c3.963,0.506,7.688-2.555,9.714-5.572c9.565-14.251,19.131-28.502,28.696-42.754c2.118-3.156,2.075-8.195,0-11.356
					c-17.474-26.62-34.946-53.241-52.42-79.861c-3.672-5.594-9.527-6.576-15.392-4.036c-31.379,13.588-62.758,27.177-94.137,40.766
					c-4.784,2.072-6.063,8.184-5.17,12.705c7.177,36.359,14.354,72.719,21.532,109.077c0.989,5.009,6.108,8.06,10.848,8.26
					c22.978,0.972,45.956,1.943,68.934,2.915c14.035,0.594,28.07,1.188,42.104,1.78c3.37,0.143,6.74,0.285,10.11,0.428
					c5.33,0.226,8.746-2.988,11.597-6.99c19.146-26.88,38.292-53.76,57.438-80.641c3.146-4.416,1.192-9.887-1.759-13.633
					c-30.678-38.932-61.354-77.864-92.031-116.796c-3.444-4.371-6.888-8.741-10.332-13.112c-3.286-4.17-9.419-3.707-13.633-1.759
					C113.746,31.624,68.671,52.462,23.595,73.301c-5.758,2.662-11.516,5.323-17.273,7.985c-4.917,2.273-5.843,8.021-5.17,12.705
					c7.084,49.318,14.169,98.636,21.253,147.955c1.582,11.016,3.165,22.03,4.747,33.045c0.705,4.904,6.321,8.213,10.848,8.26
					c49.02,0.509,98.04,1.018,147.06,1.526c18.768,0.194,37.534,0.39,56.302,0.584c3.757,0.039,7.98-2.123,9.714-5.572
					c21.209-42.199,42.418-84.398,63.627-126.598c0.338-0.671,0.675-1.341,1.012-2.012c2.754-5.479,1.499-12.15-4.036-15.392
					C306.643,132.836,299.038,134.346,296.286,139.822z"/>
			</g>
		</g>
	</g>
	<g id="Layer_1_copy_2">
		<g>
			<polygon fill="#235B7D" points="169.488,17.839 157.1,164.677 156.763,168.671 153.306,166.815 12,91 155.694,162.185 
				151.9,164.323 159.512,17.161 			"/>
		</g>
		<g>
			<polygon fill="#235B7D" points="34.609,268.325 152.911,162.777 154.825,161.069 156.337,163.045 241.361,274.11 
				152.663,165.956 156.089,166.223 41.391,275.675 			"/>
		</g>
		<g>
			<polygon fill="#235B7D" points="153.878,159.539 306,145.5 155.122,169.461 			"/>
		</g>
	</g>
	<g id="Layer_2_copy_2">
		<g>
			<polygon fill="#235B7D" points="306.715,145.859 243.158,275.014 242.611,276.125 241.341,276.121 37.963,275.537 
				34.954,275.528 34.499,272.503 7.266,91.68 6.74,88.186 9.993,86.659 162.08,15.265 166.171,13.344 169.03,16.931 
				272.133,146.255 275.238,150.15 272.328,154.301 214.453,236.821 212.168,240.08 208.075,239.94 147.057,237.854 116.55,236.747 
				86.046,235.584 79.585,235.338 78.303,228.94 72.842,201.687 67.475,174.414 62.121,147.14 56.873,119.843 55.625,113.356 
				61.626,110.792 85.211,100.717 108.83,90.721 156.079,70.755 161.837,68.322 165.145,73.467 178.062,93.556 190.908,113.69 
				216.603,153.959 218.867,157.508 216.567,160.816 187.173,203.102 185.231,205.895 182.044,205.431 152.763,201.171 
				123.494,196.812 120.196,196.32 119.838,193.183 117.145,169.559 114.538,145.922 114.268,143.473 116.409,142.606 
				136.262,134.571 156.146,126.605 157.819,125.935 158.669,127.391 168.521,144.265 178.316,161.175 176.959,162.022 
				166.068,145.796 155.234,129.535 157.757,130.32 138.353,139.392 118.918,148.394 120.789,145.078 124.548,168.558 
				128.221,192.05 124.566,188.421 153.991,191.561 183.403,194.8 178.274,197.129 206.272,153.906 206.236,160.764 
				179.511,121.171 166.148,101.375 152.855,81.533 161.921,84.245 115.033,105.045 91.583,115.432 68.1,125.74 72.853,116.689 
				78.371,143.932 83.783,171.195 89.181,198.462 94.486,225.746 86.743,219.104 117.236,220.521 147.728,221.992 208.704,225.065 
				202.326,228.184 261.398,146.516 261.594,154.561 159.97,24.07 166.92,25.735 14.007,95.341 16.734,90.32 41.501,271.497 
				38.037,268.463 241.382,272.1 239.564,273.207 305.285,145.141 			"/>
		</g>
	</g>
</g>
</svg>
